<svg width="27" height="27" viewBox="0 0 27 27" fill="none" xmlns="http://www.w3.org/2000/svg">
<path d="M10.694 7.91151C10.5511 7.64256 10.3168 7.42033 10.0333 7.28471C8.20865 6.41161 6.4338 8.09527 7.35439 9.82634C7.4973 10.0952 7.73151 10.3173 8.0151 10.4528C9.83971 11.3261 11.6146 9.64253 10.694 7.91151ZM7.52053 11.3837C7.02697 11.1479 6.62211 10.7639 6.37325 10.2958C4.97527 7.66701 7.75717 5.02804 10.5281 6.35397C11.0216 6.59 11.4263 6.97393 11.6752 7.44203C13.0731 10.0708 10.2911 12.7098 7.52053 11.3837ZM19.6254 10.6945C19.7772 10.6945 19.9003 10.5778 19.9003 10.4337V7.30405C19.9003 7.15998 19.7772 7.04326 19.6254 7.04326H16.3262C16.1744 7.04326 16.0513 7.15998 16.0513 7.30405V10.4337C16.0513 10.5778 16.1744 10.6945 16.3262 10.6945H19.6254ZM19.6254 11.7377H16.3262C15.567 11.7377 14.9516 11.1539 14.9516 10.4337V7.30403C14.9516 6.58379 15.567 6 16.3262 6H19.6254C20.3846 6 21 6.58379 21 7.30403V10.4337C21 11.1539 20.3846 11.7377 19.6254 11.7377ZM20.6941 19.756C20.9118 19.9628 20.9107 20.2971 20.6915 20.5025C20.4722 20.7079 20.118 20.7068 19.9003 20.5L15.598 15.6212C15.3803 15.4144 15.3814 15.0801 15.6007 14.8747C15.8199 14.6692 16.1741 14.6703 16.3918 14.8772L20.6941 19.756Z" fill="#767C89"/>
<path d="M20 15C20.218 14.784 20.5704 14.7852 20.7869 15.0026C21.0035 15.2201 21.0023 15.5715 20.7843 15.7875L16.3841 20.3588C16.1661 20.5748 15.8137 20.5736 15.5971 20.3562C15.3806 20.1387 15.3817 19.7873 15.5998 19.5713L20 15ZM11.9612 19.9415C12.22 20.4507 11.8745 21 11.2962 21H6.75223C6.17394 21 5.8284 20.4506 6.08716 19.9415L8.38921 15.412C8.66838 14.8627 9.37997 14.8627 9.65916 15.412L11.9612 19.9415ZM9.0242 16.6616L7.38728 19.8824H10.6611L9.0242 16.6616Z" fill="#767C89"/>
<path d="M20.8605 23.1395C22.0421 23.1395 23 22.1817 23 21V6.13954C23 4.95803 22.042 4 20.8605 4H6.13954C4.95796 4 4 4.95803 4 6.13954V21C4 22.1817 4.95787 23.1395 6.13954 23.1395H20.8605ZM21.7907 25H5.20931C3.43682 25 2 23.5632 2 21.7907V5.20931C2 3.437 3.43689 2 5.20931 2H21.7907C23.5631 2 25 3.437 25 5.20931V21.7907C25 23.5632 23.5632 25 21.7907 25Z" fill="#767C89"/>
</svg>
