<svg width="27" height="27" viewBox="0 0 27 27" fill="none" xmlns="http://www.w3.org/2000/svg">
<path d="M8.8 3C6.71693 3 5 4.77905 5 6.9375V20.0625C5 22.2209 6.71693 24 8.8 24H12.6C13.2977 24 13.8667 23.4104 13.8667 22.6875C13.8667 21.9646 13.2977 21.375 12.6 21.375H8.8C8.0776 21.375 7.53333 20.811 7.53333 20.0625V6.9375C7.53333 6.18897 8.0776 5.625 8.8 5.625H15.8755L20.2 10.106V10.875C20.2 11.5979 20.769 12.1875 21.4667 12.1875C22.1643 12.1875 22.7333 11.5979 22.7333 10.875V9.5625C22.7333 9.21387 22.5997 8.88062 22.3622 8.63452L17.2956 3.38452C17.0581 3.13843 16.7365 3 16.4 3L8.8 3ZM17.6667 13.5V17.4375H13.8667V20.0625H17.6667V24H20.2V20.0625H24V17.4375H20.2V13.5H17.6667Z" fill="#767C89"/>
</svg>
