<svg width="27" height="27" viewBox="0 0 27 27" fill="none" xmlns="http://www.w3.org/2000/svg">
<path d="M12.375 5.625H23.625" stroke="#767C89" stroke-width="2" stroke-linecap="round" stroke-linejoin="round"/>
<path d="M12.375 10.125H18" stroke="#767C89" stroke-width="2" stroke-linecap="round" stroke-linejoin="round"/>
<path d="M6.75 5.625H4.5C3.87868 5.625 3.375 6.12868 3.375 6.75V9C3.375 9.62132 3.87868 10.125 4.5 10.125H6.75C7.37132 10.125 7.875 9.62132 7.875 9V6.75C7.875 6.12868 7.37132 5.625 6.75 5.625Z" stroke="#767C89" stroke-width="2" stroke-linecap="round" stroke-linejoin="round"/>
<path d="M12.375 16.875H23.625" stroke="#767C89" stroke-width="2" stroke-linecap="round" stroke-linejoin="round"/>
<path d="M12.375 21.375H18" stroke="#767C89" stroke-width="2" stroke-linecap="round" stroke-linejoin="round"/>
<path d="M6.75 16.875H4.5C3.87868 16.875 3.375 17.3787 3.375 18V20.25C3.375 20.8713 3.87868 21.375 4.5 21.375H6.75C7.37132 21.375 7.875 20.8713 7.875 20.25V18C7.875 17.3787 7.37132 16.875 6.75 16.875Z" stroke="#767C89" stroke-width="2" stroke-linecap="round" stroke-linejoin="round"/>
</svg>
