<svg width="27" height="27" viewBox="0 0 27 27" fill="none" xmlns="http://www.w3.org/2000/svg">
<path d="M17.6364 4.00009H20.8665C21.0135 3.99824 21.1595 4.02499 21.296 4.07881C21.4325 4.13264 21.5569 4.21248 21.6622 4.31379C21.7674 4.41509 21.8514 4.53587 21.9094 4.66922C21.9674 4.80258 21.9981 4.9459 22 5.091V23.909C21.9981 24.0541 21.9674 24.1974 21.9094 24.3308C21.8514 24.4641 21.7674 24.5849 21.6622 24.6862C21.5569 24.7875 21.4325 24.8674 21.296 24.9212C21.1595 24.975 21.0135 25.0018 20.8665 24.9999H5.13345C4.98647 25.0018 4.84055 24.975 4.70403 24.9212C4.56752 24.8674 4.44308 24.7875 4.33783 24.6862C4.23258 24.5849 4.14857 24.4641 4.0906 24.3308C4.03264 24.1974 4.00185 24.0541 4 23.909V5.091C4.00185 4.9459 4.03264 4.80258 4.0906 4.66922C4.14857 4.53587 4.23258 4.41509 4.33783 4.31379C4.44308 4.21248 4.56752 4.13264 4.70403 4.07881C4.84055 4.02499 4.98647 3.99824 5.13345 4.00009H8.36364" stroke="#767C89" stroke-width="2" stroke-miterlimit="10" stroke-linecap="round"/>
<path d="M4 5C4 4.7276 4.11334 4.46635 4.31508 4.27374C4.51683 4.08112 4.79046 3.97291 5.07577 3.97291H10.3529V3.47857C10.3592 3.09706 10.4562 2.72191 10.6366 2.38144C10.817 2.04098 10.6366 2.38144 11.3943 1.51324C11.7125 1.28238 12.0815 1.12357 12.4734 1.04881C12.8652 0.974051 13.2698 0.985292 13.6565 1.08168C14.2349 1.22824 14.7453 1.55558 15.1061 2.01148C15.4669 2.46737 15.6574 3.02552 15.6471 3.59685V3.97291H20.9242C21.2095 3.97291 21.4832 4.08112 21.6849 4.27374C21.8867 4.46635 22 4.7276 22 5" stroke="#767C89" stroke-width="2" stroke-miterlimit="10" stroke-linecap="round"/>
<path d="M13 9L18 9" stroke="#767C89" stroke-width="2" stroke-miterlimit="10" stroke-linecap="round"/>
<path d="M7 9.5L7.75 10L10 8" stroke="#767C89" stroke-width="2" stroke-miterlimit="10" stroke-linecap="round"/>
<path d="M7 14.5L7.75 15L10 13" stroke="#767C89" stroke-width="2" stroke-miterlimit="10" stroke-linecap="round"/>
<path d="M13 14L18 14" stroke="#767C89" stroke-width="2" stroke-miterlimit="10" stroke-linecap="round"/>
<path d="M13 19H18" stroke="#767C89" stroke-width="2" stroke-miterlimit="10" stroke-linecap="round"/>
<path d="M7 19.5L7.75 20L10 18" stroke="#767C89" stroke-width="2" stroke-miterlimit="10" stroke-linecap="round"/>
</svg>
