<svg width="27" height="27" viewBox="0 0 27 27" fill="none" xmlns="http://www.w3.org/2000/svg">
<g clip-path="url(#clip0_1_26)">
<path d="M16.0312 1.46142L22.6601 5.28858C24.2264 6.19291 25.1913 7.86418 25.1913 9.67284V17.3272C25.1913 19.1358 24.2264 20.8071 22.6601 21.7114L16.0312 25.5386C14.4649 26.4429 12.5351 26.4429 10.9687 25.5386L4.3399 21.7114C2.77356 20.8071 1.80865 19.1358 1.80865 17.3272V9.67284C1.80865 7.86418 2.77356 6.19291 4.3399 5.28858L10.9687 1.46142C12.5351 0.55709 14.4649 0.55709 16.0312 1.46142ZM11.9887 2.82794L11.8125 2.92284L5.18365 6.75C4.19439 7.32116 3.56498 8.3512 3.50147 9.48327L3.49615 9.67284V17.3272C3.49615 18.4695 4.0735 19.5296 5.02214 20.1506L5.18365 20.25L11.8125 24.0772C12.7987 24.6466 14.0011 24.6782 15.0113 24.1721L15.1875 24.0772L21.8163 20.25C22.8056 19.6788 23.435 18.6488 23.4985 17.5167L23.5038 17.3272V9.67284C23.5038 8.53053 22.9265 7.47042 21.9779 6.84938L21.8163 6.75L15.1875 2.92284C14.2013 2.35344 12.9989 2.32181 11.9887 2.82794ZM19.4234 9.75154C19.6422 10.163 19.486 10.6739 19.0745 10.8926L14.334 13.4128L14.3341 19.1241C14.3341 19.5901 13.9563 19.9678 13.4903 19.9678C13.0243 19.9678 12.6466 19.5901 12.6466 19.1241L12.6465 13.4128L7.90611 10.8926C7.49467 10.6739 7.33847 10.163 7.55724 9.75154C7.77601 9.34009 8.2869 9.1839 8.69835 9.40267L13.4903 11.9497L18.2823 9.40267C18.6937 9.1839 19.2046 9.34009 19.4234 9.75154Z" fill="#767C89"/>
</g>
<defs>
<clipPath id="clip0_1_26">
<rect width="27" height="27" fill="white"/>
</clipPath>
</defs>
</svg>
